<svg width="55" height="50" viewBox="0 0 55 50" fill="none" xmlns="http://www.w3.org/2000/svg">
<path d="M42.9523 30.5692C42.9523 30.4836 42.9613 30.3981 42.9793 30.3171C42.2557 30.5219 41.5094 30.7064 40.743 30.8707C38.6757 32.3582 35.9749 33.5824 32.8617 34.4264C29.7957 35.2567 26.3147 35.7271 22.6292 35.7271C21.9145 35.7271 21.2089 35.7091 20.5123 35.6753V40.5047C21.2066 40.5407 21.9145 40.5587 22.6292 40.5587C24.3741 40.5587 26.0446 40.4507 27.6204 40.2504C29.2662 40.0411 30.833 39.7305 32.2893 39.3345C32.9025 39.168 33.5337 39.528 33.7005 40.1401C33.8674 40.7522 33.5067 41.3823 32.8935 41.5488C31.3289 41.9742 29.6561 42.3072 27.909 42.53C26.1956 42.7483 24.4236 42.8653 22.6292 42.8653C21.9145 42.8653 21.2089 42.8473 20.5123 42.8135V47.6406C21.2089 47.6766 21.9145 47.6947 22.6292 47.6947C28.3712 47.6947 33.5519 46.4975 37.2831 44.5621C40.7864 42.7461 42.9529 40.3156 42.9529 37.7053V36.049C42.4637 36.5936 41.9024 37.1135 41.2779 37.6041C40.7774 37.9956 40.0515 37.9101 39.6592 37.4105C39.267 36.9109 39.3526 36.1863 39.8531 35.7947C40.8811 34.9869 41.6814 34.1137 42.2089 33.2C42.6824 32.3786 42.9439 31.5077 42.9507 30.6121V30.5693L42.9523 30.5692ZM33.9323 31.6966C33.4161 31.7146 32.8953 31.7258 32.37 31.7258C27.0632 31.7258 21.3371 30.7582 16.6525 28.3323C12.3827 26.1178 9.7385 22.9741 9.7385 19.4321V15.7639C7.59683 16.6438 5.81806 17.733 4.53083 18.9685C3.11508 20.3255 2.31021 21.849 2.31021 23.4378C2.31021 26.0482 4.4767 28.4786 7.97779 30.2945C12.3829 32.5786 17.8161 33.4271 22.6317 33.4271C26.1102 33.4271 29.3858 32.986 32.2605 32.2073C32.8354 32.0521 33.3944 31.881 33.9333 31.701L33.9323 31.6966ZM9.73792 13.2907V12.2938C9.73792 8.75167 12.3801 5.60812 16.6502 3.39358C20.6924 1.29623 26.2519 0 32.37 0C33.9842 0 35.5758 0.0922687 37.1201 0.267795C38.6869 0.445574 40.2064 0.715622 41.6492 1.06218C42.2669 1.20846 42.648 1.8273 42.5014 2.4439C42.3549 3.0605 41.7349 3.44085 41.1172 3.29458C39.7826 2.97502 38.3601 2.72297 36.8677 2.55417C35.4338 2.39214 33.9302 2.30438 32.3701 2.30438C26.6259 2.30438 21.445 3.50157 17.7139 5.43693C14.2263 7.24623 12.0621 9.6654 12.0463 12.2649V12.3549C12.0801 14.9429 14.2399 17.3485 17.7139 19.1512C22.0491 21.3993 27.4437 22.2837 32.3701 22.2837C38.1121 22.2837 43.2928 21.0865 47.024 19.1512C50.5251 17.3351 52.6916 14.9047 52.6916 12.2944C52.6916 11.275 52.3624 10.2848 51.7582 9.35312C51.0886 8.32467 50.0832 7.35705 48.8027 6.48834C48.2774 6.13053 48.1422 5.41489 48.5006 4.89058C48.859 4.36627 49.576 4.23124 50.1012 4.58903C51.6252 5.62647 52.8471 6.81019 53.688 8.10192C54.5333 9.4004 54.9955 10.8002 55 12.2652V19.4307C55 22.9728 52.3578 26.1164 48.086 28.3309C47.1031 28.8418 46.0277 29.3031 44.878 29.7126C45.1124 29.9242 45.2612 30.2302 45.2612 30.5701V37.7062C45.2612 41.2483 42.6191 44.3919 38.3472 46.6064C34.3073 48.7038 28.7455 50 22.6297 50C21.6535 50 20.6931 49.9662 19.7485 49.9032C19.6268 49.946 19.496 49.9708 19.3585 49.9708C19.1579 49.9708 18.9662 49.919 18.8017 49.8267C15.5193 49.5274 12.4781 48.8523 9.84694 47.8891L9.79734 47.8914C9.47947 47.8914 9.19315 47.7631 8.98579 47.5583C8.25762 47.2635 7.56553 46.9462 6.91401 46.6087C2.64192 44.3942 0 41.2505 0 37.7085V23.4073C0.00901822 21.1704 1.07086 19.0978 2.93297 17.311C4.60572 15.7088 6.94356 14.3337 9.73905 13.294L9.73792 13.2907ZM2.30969 28.9175V30.5693C2.30969 33.1797 4.47618 35.6102 7.97952 37.426C8.19595 37.5385 8.41688 37.6488 8.64455 37.7546V33.1435C8.04035 32.8892 7.46322 32.6192 6.91316 32.3334C5.03524 31.359 3.47301 30.207 2.30969 28.9175ZM10.9534 33.9966V38.7022C13.1086 39.4628 15.5614 40.0187 18.2056 40.3158V35.4977C15.5972 35.2231 13.1512 34.7078 10.9534 33.9989V33.9966ZM12.049 17.7782V19.43C12.049 22.0404 14.2177 24.4709 17.7188 26.2868C17.8789 26.37 18.0412 26.451 18.2058 26.5321V21.93C17.667 21.6982 17.1462 21.4529 16.6502 21.1941C14.7723 20.2197 13.21 19.0653 12.0467 17.778L12.049 17.7782ZM20.5166 27.4999C22.6651 28.2763 25.1179 28.8456 27.7688 29.1562V24.3403C25.156 24.0523 22.7099 23.5234 20.5166 22.8033V27.5021V27.4999ZM30.0773 29.3543C30.8303 29.397 31.5968 29.4195 32.3723 29.4195C35.0754 29.4195 37.6544 29.154 40.017 28.6701L40.0441 28.6656C42.6885 28.1233 45.0579 27.3064 47.0262 26.287C50.5295 24.4709 52.696 22.0405 52.696 19.4302V17.7784C51.5327 19.0679 49.9704 20.2201 48.0925 21.1968C44.0503 23.2941 38.4908 24.5904 32.3726 24.5904C31.5994 24.5904 30.8328 24.5701 30.0799 24.5296V29.3567L30.0773 29.3543ZM2.30992 36.0538V37.7056C2.30992 40.316 4.47641 42.7464 7.97975 44.5623C8.19618 44.6748 8.41937 44.7851 8.64478 44.8909V40.2798C8.04284 40.0255 7.46346 39.7555 6.91564 39.4697C5.03772 38.4953 3.47318 37.3431 2.31212 36.0536L2.30992 36.0538ZM10.9536 41.1329V45.8385C13.1088 46.5991 15.5616 47.155 18.2058 47.452V42.6339C15.5975 42.3594 13.1514 41.8418 10.9536 41.1352V41.1329ZM36.9671 37.5908C37.5375 37.3095 38.2273 37.5435 38.5091 38.1129C38.7909 38.6822 38.5565 39.3709 37.9861 39.6522L37.1745 40.037L36.3359 40.3971C35.7453 40.6356 35.0735 40.3498 34.8345 39.7624C34.5955 39.1728 34.8818 38.5022 35.4702 38.2636L36.2277 37.9396L36.9671 37.5908ZM46.8706 2.80867C47.45 3.06746 47.7115 3.74708 47.4523 4.32543C47.193 4.90378 46.5122 5.16481 45.9328 4.90602L45.1911 4.58647L44.4155 4.28942C43.8181 4.07113 43.5115 3.40954 43.7302 2.81316C43.9489 2.21678 44.6116 1.91075 45.2091 2.12903L46.0568 2.45759L46.8729 2.80866L46.8706 2.80867Z" fill="#23398B"/>
</svg>
